<svg viewBox="0 0 32 32" fill="none" xmlns="http://www.w3.org/2000/svg">
<path d="M8.1336 23.5336C9.35547 22.6888 10.5941 22.0221 11.8496 21.5336C13.1056 21.0445 14.4891 20.8 16 20.8C17.5109 20.8 18.8944 21.0445 20.1504 21.5336C21.4059 22.0221 22.6445 22.6888 23.8664 23.5336C24.7997 22.5336 25.5331 21.4003 26.0664 20.1336C26.5997 18.8669 26.8664 17.4891 26.8664 16C26.8664 12.9776 25.8109 10.4109 23.7 8.3C21.5891 6.18907 19.0224 5.1336 16 5.1336C12.9776 5.1336 10.4109 6.18907 8.3 8.3C6.18907 10.4109 5.1336 12.9776 5.1336 16C5.1336 17.4891 5.40027 18.8669 5.9336 20.1336C6.46693 21.4003 7.20027 22.5336 8.1336 23.5336ZM16 16.5664C14.8891 16.5664 13.9501 16.1832 13.1832 15.4168C12.4168 14.6499 12.0336 13.7109 12.0336 12.6C12.0336 11.4891 12.4168 10.5501 13.1832 9.7832C13.9501 9.0168 14.8891 8.6336 16 8.6336C17.1109 8.6336 18.0499 9.0168 18.8168 9.7832C19.5832 10.5501 19.9664 11.4891 19.9664 12.6C19.9664 13.7109 19.5832 14.6499 18.8168 15.4168C18.0499 16.1832 17.1109 16.5664 16 16.5664ZM16 28C14.3333 28 12.7723 27.6888 11.3168 27.0664C9.86133 26.4445 8.58907 25.5891 7.5 24.5C6.41093 23.4109 5.55547 22.1387 4.9336 20.6832C4.3112 19.2277 4 17.6667 4 16C4 14.3333 4.3112 12.7723 4.9336 11.3168C5.55547 9.86133 6.41093 8.58907 7.5 7.5C8.58907 6.41093 9.86133 5.55547 11.3168 4.9336C12.7723 4.3112 14.3333 4 16 4C17.6667 4 19.2277 4.3112 20.6832 4.9336C22.1387 5.55547 23.4109 6.41093 24.5 7.5C25.5891 8.58907 26.4445 9.86133 27.0664 11.3168C27.6888 12.7723 28 14.3333 28 16C28 17.6667 27.6888 19.2277 27.0664 20.6832C26.4445 22.1387 25.5891 23.4109 24.5 24.5C23.4109 25.5891 22.1387 26.4445 20.6832 27.0664C19.2277 27.6888 17.6667 28 16 28ZM16 26.8664C17.2443 26.8664 18.4776 26.6499 19.7 26.2168C20.9224 25.7832 22.0112 25.1555 22.9664 24.3336C22.0112 23.6003 20.9445 23.0168 19.7664 22.5832C18.5888 22.1501 17.3333 21.9336 16 21.9336C14.6667 21.9336 13.4056 22.1445 12.2168 22.5664C11.028 22.9888 9.96693 23.5779 9.0336 24.3336C9.9888 25.1555 11.0776 25.7832 12.3 26.2168C13.5224 26.6499 14.7557 26.8664 16 26.8664ZM16 15.4336C16.8 15.4336 17.4723 15.1613 18.0168 14.6168C18.5613 14.0723 18.8336 13.4 18.8336 12.6C18.8336 11.7776 18.5613 11.0997 18.0168 10.5664C17.4723 10.0331 16.8 9.7664 16 9.7664C15.2 9.7664 14.5277 10.0387 13.9832 10.5832C13.4387 11.1277 13.1664 11.8 13.1664 12.6C13.1664 13.4 13.4387 14.0723 13.9832 14.6168C14.5277 15.1613 15.2 15.4336 16 15.4336Z" fill="white"/>
</svg>
