<svg viewBox="0 0 32 32" fill="none" xmlns="http://www.w3.org/2000/svg">
<path d="M7.56659 23.2336C8.87806 22.3003 10.2226 21.5835 11.6002 21.0832C12.9778 20.5835 14.4445 20.3336 16.0002 20.3336C17.5559 20.3336 19.0226 20.5835 20.4002 21.0832C21.7778 21.5835 23.1333 22.3003 24.4666 23.2336C25.3781 22.1003 26.0503 20.9501 26.4834 19.7832C26.917 18.6168 27.1338 17.3557 27.1338 16C27.1338 12.8891 26.0559 10.2557 23.9002 8.10001C21.7445 5.94427 19.1111 4.86641 16.0002 4.86641C12.8893 4.86641 10.2559 5.94427 8.10019 8.10001C5.94446 10.2557 4.86659 12.8891 4.86659 16C4.86659 17.3557 5.08339 18.6168 5.51699 19.7832C5.95006 20.9501 6.63326 22.1003 7.56659 23.2336ZM16.0002 17.3664C14.6445 17.3664 13.4999 16.8997 12.5666 15.9664C11.6333 15.0331 11.1666 13.8997 11.1666 12.5664C11.1666 11.2112 11.6333 10.0669 12.5666 9.13361C13.4999 8.20027 14.6445 7.73361 16.0002 7.73361C17.3559 7.73361 18.5005 8.20027 19.4338 9.13361C20.3671 10.0669 20.8338 11.2112 20.8338 12.5664C20.8338 13.9221 20.3671 15.0611 19.4338 15.9832C18.5005 16.9053 17.3559 17.3664 16.0002 17.3664ZM16.0002 29.3664C14.1778 29.3664 12.4557 29.0165 10.8338 28.3168C9.21139 27.6165 7.78899 26.6555 6.56659 25.4336C5.34472 24.2112 4.38366 22.7944 3.68339 21.1832C2.98366 19.572 2.63379 17.8331 2.63379 15.9664C2.63379 14.1664 2.98366 12.4555 3.68339 10.8336C4.38366 9.21121 5.34472 7.78881 6.56659 6.56641C7.78899 5.34454 9.20579 4.38347 10.817 3.68321C12.4282 2.98347 14.1671 2.63361 16.0338 2.63361C17.8338 2.63361 19.5447 2.98347 21.1666 3.68321C22.789 4.38347 24.2114 5.34454 25.4338 6.56641C26.6557 7.78881 27.6167 9.20561 28.317 10.8168C29.0167 12.428 29.3666 14.1557 29.3666 16C29.3666 17.8224 29.0167 19.5445 28.317 21.1664C27.6167 22.7888 26.6557 24.2112 25.4338 25.4336C24.2114 26.6555 22.7946 27.6165 21.1834 28.3168C19.5722 29.0165 17.8445 29.3664 16.0002 29.3664ZM16.0002 27.1336C17.1559 27.1336 18.3114 26.9501 19.4666 26.5832C20.6223 26.2168 21.7114 25.6336 22.7338 24.8336C21.7114 24.1003 20.6279 23.5445 19.4834 23.1664C18.3389 22.7888 17.1778 22.6 16.0002 22.6C14.8226 22.6 13.6615 22.7888 12.517 23.1664C11.3725 23.5445 10.3002 24.1003 9.30019 24.8336C10.3002 25.6336 11.3781 26.2168 12.5338 26.5832C13.689 26.9501 14.8445 27.1336 16.0002 27.1336ZM16.0002 15.1336C16.7335 15.1336 17.3447 14.8835 17.8338 14.3832C18.3223 13.8835 18.5666 13.2779 18.5666 12.5664C18.5666 11.8331 18.3167 11.2221 17.817 10.7336C17.3167 10.2445 16.7111 10 16.0002 10C15.2669 10 14.6557 10.2445 14.1666 10.7336C13.6781 11.2221 13.4338 11.8331 13.4338 12.5664C13.4338 13.2779 13.6837 13.8835 14.1834 14.3832C14.6837 14.8835 15.2893 15.1336 16.0002 15.1336Z" fill="white"/>
</svg>
