<svg width="24" height="24" viewBox="0 0 24 24" fill="none" xmlns="http://www.w3.org/2000/svg">
<mask id="mask0_288_1700" style="mask-type:alpha" maskUnits="userSpaceOnUse" x="0" y="0" width="24" height="24">
<rect width="24" height="24" fill="#D9D9D9"/>
</mask>
<g mask="url(#mask0_288_1700)">
<path d="M18.75 8V6H16.75V5H18.75V3H19.75V5H21.75V6H19.75V8H18.75ZM3.375 21C2.90833 21 2.521 20.846 2.213 20.538C1.90433 20.2293 1.75 19.8417 1.75 19.375V8.625C1.75 8.15833 1.90433 7.771 2.213 7.463C2.521 7.15433 2.90833 7 3.375 7H6.325L8.175 5H14.25V6H8.6L6.75 8H3.375C3.19167 8 3.04167 8.05833 2.925 8.175C2.80833 8.29167 2.75 8.44167 2.75 8.625V19.375C2.75 19.5583 2.80833 19.7083 2.925 19.825C3.04167 19.9417 3.19167 20 3.375 20H18.125C18.3083 20 18.4583 19.9417 18.575 19.825C18.6917 19.7083 18.75 19.5583 18.75 19.375V10.5H19.75V19.375C19.75 19.8417 19.596 20.2293 19.288 20.538C18.9793 20.846 18.5917 21 18.125 21H3.375ZM10.75 17.725C11.8 17.725 12.6833 17.3667 13.4 16.65C14.1167 15.9333 14.475 15.05 14.475 14C14.475 12.95 14.1167 12.0667 13.4 11.35C12.6833 10.6333 11.8 10.275 10.75 10.275C9.7 10.275 8.81667 10.6333 8.1 11.35C7.38333 12.0667 7.025 12.95 7.025 14C7.025 15.05 7.38333 15.9333 8.1 16.65C8.81667 17.3667 9.7 17.725 10.75 17.725ZM10.75 16.725C9.96667 16.725 9.31667 16.4667 8.8 15.95C8.28333 15.4333 8.025 14.7833 8.025 14C8.025 13.2167 8.28333 12.5667 8.8 12.05C9.31667 11.5333 9.96667 11.275 10.75 11.275C11.5333 11.275 12.1833 11.5333 12.7 12.05C13.2167 12.5667 13.475 13.2167 13.475 14C13.475 14.7833 13.2167 15.4333 12.7 15.95C12.1833 16.4667 11.5333 16.725 10.75 16.725Z" fill="white"/>
</g>
</svg>
