<svg width="24" height="24" viewBox="0 0 24 24" fill="none" xmlns="http://www.w3.org/2000/svg">
<mask id="mask0_1161_5421" style="mask-type:alpha" maskUnits="userSpaceOnUse" x="0" y="0" width="24" height="24">
<rect width="24" height="24" fill="#D9D9D9"/>
</mask>
<g mask="url(#mask0_1161_5421)">
<path d="M12 2.5001C12.5333 2.5001 13.071 2.5501 13.613 2.6501C14.1543 2.7501 14.675 2.9001 15.175 3.1001L13.025 4.0751L12.525 4.0251C12.3583 4.00843 12.1833 4.0001 12 4.0001C11.6667 4.0001 11.354 4.01676 11.062 4.0501C10.7707 4.08343 10.475 4.14176 10.175 4.2251C10.9417 5.6251 11.996 6.68743 13.338 7.4121C14.6793 8.13743 16.0667 8.5001 17.5 8.5001H17.95L18.6 9.9251C17.1 10.1084 15.546 9.9251 13.938 9.3751C12.3293 8.8251 10.9333 7.8001 9.75 6.3001C9.11667 7.81676 8.28767 9.01243 7.263 9.8871C6.23767 10.7624 5.15 11.4168 4 11.8501C4 14.1668 4.77933 16.1044 6.338 17.6631C7.896 19.2211 9.78333 20.0001 12 20.0001C14.2667 20.0001 16.171 19.2001 17.713 17.6001C19.2543 16.0001 20.0167 14.1334 20 12.0001C20 11.7834 19.9917 11.5918 19.975 11.4251C19.9583 11.2584 19.9417 11.0834 19.925 10.9001L20.9 8.7751C21.1167 9.30843 21.271 9.84176 21.363 10.3751C21.4543 10.9084 21.5 11.4501 21.5 12.0001C21.5 13.2834 21.2543 14.5001 20.763 15.6501C20.271 16.8001 19.6 17.8084 18.75 18.6751C17.9 19.5418 16.9 20.2294 15.75 20.7381C14.6 21.2461 13.35 21.5001 12 21.5001C10.7 21.5001 9.47067 21.2501 8.312 20.7501C7.154 20.2501 6.14567 19.5708 5.287 18.7121C4.429 17.8541 3.75 16.8461 3.25 15.6881C2.75 14.5294 2.5 13.3001 2.5 12.0001C2.5 10.6501 2.75833 9.3961 3.275 8.2381C3.79167 7.07943 4.48333 6.0751 5.35 5.2251C6.21667 4.3751 7.225 3.70843 8.375 3.2251C9.525 2.74176 10.7333 2.5001 12 2.5001ZM9 11.7501C9.35 11.7501 9.64567 11.8711 9.887 12.1131C10.129 12.3544 10.25 12.6501 10.25 13.0001C10.25 13.3501 10.129 13.6458 9.887 13.8871C9.64567 14.1291 9.35 14.2501 9 14.2501C8.65 14.2501 8.35433 14.1291 8.113 13.8871C7.871 13.6458 7.75 13.3501 7.75 13.0001C7.75 12.6501 7.871 12.3544 8.113 12.1131C8.35433 11.8711 8.65 11.7501 9 11.7501ZM15 11.7501C15.35 11.7501 15.6457 11.8711 15.887 12.1131C16.129 12.3544 16.25 12.6501 16.25 13.0001C16.25 13.3501 16.129 13.6458 15.887 13.8871C15.6457 14.1291 15.35 14.2501 15 14.2501C14.65 14.2501 14.3543 14.1291 14.113 13.8871C13.871 13.6458 13.75 13.3501 13.75 13.0001C13.75 12.6501 13.871 12.3544 14.113 12.1131C14.3543 11.8711 14.65 11.7501 15 11.7501ZM19.5 1.2251L20.525 3.4751L22.775 4.5001L20.525 5.5251L19.5 7.7751L18.475 5.5251L16.225 4.5001L18.475 3.4751L19.5 1.2251ZM4.275 10.1001C5.225 9.61676 6.121 8.9251 6.963 8.0251C7.80433 7.1251 8.35 6.04176 8.6 4.7751C7.5 5.2751 6.575 5.98743 5.825 6.9121C5.075 7.83743 4.55833 8.9001 4.275 10.1001Z" fill="white"/>
</g>
</svg>
