<svg width="25" height="24" viewBox="0 0 25 24" fill="none" xmlns="http://www.w3.org/2000/svg">
<mask id="mask0_1161_5409" style="mask-type:alpha" maskUnits="userSpaceOnUse" x="0" y="0" width="25" height="24">
<rect x="0.5" width="24" height="24" fill="#D9D9D9"/>
</mask>
<g mask="url(#mask0_1161_5409)">
<path d="M7.7 10.6251L12.5 2.7251L17.3 10.6251H7.7ZM18 21.6251C16.85 21.6251 15.875 21.2251 15.075 20.4251C14.275 19.6251 13.875 18.6501 13.875 17.5001C13.875 16.3501 14.275 15.3751 15.075 14.5751C15.875 13.7751 16.85 13.3751 18 13.3751C19.15 13.3751 20.125 13.7751 20.925 14.5751C21.725 15.3751 22.125 16.3501 22.125 17.5001C22.125 18.6501 21.725 19.6251 20.925 20.4251C20.125 21.2251 19.15 21.6251 18 21.6251ZM3.875 21.1251V13.8751H11.125V21.1251H3.875ZM18 20.1251C18.7333 20.1251 19.3543 19.8711 19.863 19.3631C20.371 18.8544 20.625 18.2334 20.625 17.5001C20.625 16.7668 20.371 16.1458 19.863 15.6371C19.3543 15.1291 18.7333 14.8751 18 14.8751C17.2667 14.8751 16.646 15.1291 16.138 15.6371C15.6293 16.1458 15.375 16.7668 15.375 17.5001C15.375 18.2334 15.6293 18.8544 16.138 19.3631C16.646 19.8711 17.2667 20.1251 18 20.1251ZM5.375 19.6251H9.625V15.3751H5.375V19.6251ZM10.35 9.1251H14.65L12.5 5.6501L10.35 9.1251Z" fill="white"/>
</g>
</svg>
