<svg width="20" height="20" viewBox="0 0 20 20" fill="none" xmlns="http://www.w3.org/2000/svg">
<mask id="mask0_1161_5467" style="mask-type:alpha" maskUnits="userSpaceOnUse" x="0" y="0" width="20" height="20">
<rect width="20" height="20" fill="#D9D9D9"/>
</mask>
<g mask="url(#mask0_1161_5467)">
<path d="M5.20801 11.458H11.5V10.125H5.20801V11.458ZM5.20801 9.00001H14.792V7.66701H5.20801V9.00001ZM5.20801 6.54201H14.792V5.20801H5.20801V6.54201ZM2.08301 17.542V3.66701C2.08301 3.22234 2.23601 2.84734 2.54201 2.54201C2.84734 2.23601 3.22234 2.08301 3.66701 2.08301H16.333C16.7777 2.08301 17.1527 2.23601 17.458 2.54201C17.764 2.84734 17.917 3.22234 17.917 3.66701V13C17.917 13.4447 17.764 13.8197 17.458 14.125C17.1527 14.4303 16.7777 14.583 16.333 14.583H5.04201L2.08301 17.542ZM3.41701 14.312L4.47901 13.25H16.333C16.403 13.25 16.462 13.2257 16.51 13.177C16.5587 13.1283 16.583 13.0693 16.583 13V3.66701C16.583 3.59701 16.5587 3.53801 16.51 3.49001C16.462 3.44134 16.403 3.41701 16.333 3.41701H3.66701C3.59701 3.41701 3.53801 3.44134 3.49001 3.49001C3.44134 3.53801 3.41701 3.59701 3.41701 3.66701V14.312ZM3.41701 3.66701V3.41701V14.312V3.66701Z" fill="white"/>
</g>
</svg>
