<svg viewBox="0 0 32 32" fill="none" xmlns="http://www.w3.org/2000/svg">
<path d="M26.4337 19.3336L24.6665 17.5664L25.6337 16.6C25.7446 16.4891 25.8724 16.4336 26.0169 16.4336C26.1614 16.4336 26.3004 16.4891 26.4337 16.6L27.4001 17.5664C27.511 17.6997 27.5665 17.8387 27.5665 17.9832C27.5665 18.1277 27.511 18.2555 27.4001 18.3664L26.4337 19.3336ZM16.6665 27.3336V25.5664L23.5665 18.6664L25.3337 20.4336L18.4337 27.3336H16.6665ZM4.6665 20.5664V19.4336H14.2001V20.5664H4.6665ZM4.6665 15.1664V14.0336H19.6337V15.1664H4.6665ZM4.6665 9.80001V8.66641H19.6337V9.80001H4.6665Z" fill="white"/>
</svg>
