<svg viewBox="0 0 32 32" fill="none" xmlns="http://www.w3.org/2000/svg">
<path d="M26.8998 19.6336L24.3662 17.1L25.3334 16.1336C25.5334 15.9112 25.7833 15.8 26.083 15.8C26.3833 15.8 26.6555 15.9112 26.8998 16.1336L27.8662 17.1C28.0886 17.3443 28.1998 17.6165 28.1998 17.9168C28.1998 18.2165 28.0886 18.4664 27.8662 18.6664L26.8998 19.6336ZM16.0662 27.9336V25.4L23.1662 18.2664L25.7334 20.8336L18.5998 27.9336H16.0662ZM3.7998 21.3664V19.1336H14.1998V21.3664H3.7998ZM3.7998 15.5664V13.3H19.7662V15.5664H3.7998ZM3.7998 9.69999V7.43359H19.7662V9.69999H3.7998Z" fill="white"/>
</svg>
