<svg viewBox="0 0 22 22" fill="none" xmlns="http://www.w3.org/2000/svg">
<path d="M19.7864 5.53436L16.8736 2.62666L18.3693 1.13096C18.5807 0.91956 18.847 0.814716 19.1681 0.816427C19.4891 0.818138 19.7611 0.930382 19.9839 1.15316L21.2796 2.44889C21.491 2.66029 21.5975 2.92483 21.5993 3.24249C21.601 3.56016 21.4904 3.83038 21.2676 4.05316L19.7864 5.53436ZM1.71802 21.6669C1.43369 21.6669 1.20021 21.5755 1.01759 21.3929C0.834963 21.2103 0.743652 20.9768 0.743652 20.6925V19.1498C0.743652 19.0244 0.76673 18.9069 0.812886 18.7972C0.859041 18.6875 0.93283 18.5763 1.03425 18.4635L16.0822 3.43266L18.9779 6.32839L3.94709 21.3763C3.83426 21.4777 3.72301 21.5515 3.61332 21.5976C3.50363 21.6438 3.38611 21.6669 3.26075 21.6669H1.71802Z" fill="white"/>
</svg>
