<svg width="20" height="20" viewBox="0 0 20 20" fill="none" xmlns="http://www.w3.org/2000/svg">
<path d="M10 17L8.958 16.062C7.56933 14.826 6.42367 13.767 5.521 12.885C4.61833 12.003 3.90633 11.2183 3.385 10.531C2.86433 9.84367 2.50333 9.21533 2.302 8.646C2.10067 8.07667 2 7.49333 2 6.896C2 5.66 2.42367 4.61833 3.271 3.771C4.11833 2.92367 5.16 2.5 6.396 2.5C7.07667 2.5 7.73633 2.646 8.375 2.938C9.01367 3.22933 9.55533 3.639 10 4.167C10.4447 3.639 10.9863 3.22933 11.625 2.938C12.2637 2.646 12.9233 2.5 13.604 2.5C14.84 2.5 15.8817 2.92367 16.729 3.771C17.5763 4.61833 18 5.66 18 6.896C18 7.49333 17.9027 8.06967 17.708 8.625C17.514 9.18033 17.1563 9.79833 16.635 10.479C16.1143 11.1597 15.3993 11.948 14.49 12.844C13.58 13.74 12.4167 14.8267 11 16.104L10 17Z" fill="#3732FF"/>
</svg>
