<svg width="32" height="32" viewBox="0 0 32 32" fill="none" xmlns="http://www.w3.org/2000/svg">
<mask id="mask0_1161_5569" style="mask-type:alpha" maskUnits="userSpaceOnUse" x="0" y="0" width="32" height="32">
<rect width="32" height="32" fill="#D9D9D9"/>
</mask>
<g mask="url(#mask0_1161_5569)">
<path d="M15.9997 27.1002L14.533 25.7669C12.3108 23.7669 10.4775 22.0446 9.03301 20.6002C7.58856 19.1558 6.44412 17.8722 5.59967 16.7495C4.75523 15.6278 4.16634 14.6055 3.83301 13.6829C3.49967 12.7611 3.33301 11.8224 3.33301 10.8669C3.33301 8.97797 3.97212 7.39442 5.25034 6.1162C6.52767 4.83886 8.11079 4.2002 9.99967 4.2002C11.1552 4.2002 12.2552 4.4722 13.2997 5.0162C14.3441 5.56108 15.2441 6.34464 15.9997 7.36686C16.7552 6.34464 17.6552 5.56108 18.6997 5.0162C19.7441 4.4722 20.8441 4.2002 21.9997 4.2002C23.8886 4.2002 25.4717 4.83886 26.749 6.1162C28.0272 7.39442 28.6663 8.97797 28.6663 10.8669C28.6663 11.8224 28.4997 12.7611 28.1663 13.6829C27.833 14.6055 27.2441 15.6278 26.3997 16.7495C25.5552 17.8722 24.4108 19.1558 22.9663 20.6002C21.5219 22.0446 19.6886 23.7669 17.4663 25.7669L15.9997 27.1002ZM15.9997 24.4002C18.133 22.4891 19.8886 20.8446 21.2663 19.4669C22.6441 18.0891 23.733 16.8944 24.533 15.8829C25.333 14.8722 25.8886 13.978 26.1997 13.2002C26.5108 12.4224 26.6663 11.6446 26.6663 10.8669C26.6663 9.53353 26.2219 8.42242 25.333 7.53353C24.4441 6.64464 23.333 6.2002 21.9997 6.2002C20.9552 6.2002 19.9828 6.5002 19.0823 7.10019C18.1828 7.7002 17.4775 8.53353 16.9663 9.60019H15.033C14.4997 8.51131 13.7886 7.67219 12.8997 7.08286C12.0108 6.49442 11.0441 6.2002 9.99967 6.2002C8.66634 6.2002 7.55523 6.64464 6.66634 7.53353C5.77745 8.42242 5.33301 9.53353 5.33301 10.8669C5.33301 11.6446 5.48856 12.4224 5.79967 13.2002C6.11079 13.978 6.66634 14.8722 7.46634 15.8829C8.26634 16.8944 9.35523 18.0833 10.733 19.4495C12.1108 20.8166 13.8663 22.4669 15.9997 24.4002Z" fill="white"/>
</g>
</svg>
