<svg viewBox="0 0 32 32" fill="none" xmlns="http://www.w3.org/2000/svg">
<path d="M7.73351 25.6664H12.1335V17.2664H19.8999V25.6664H24.2663V13.2L15.9999 7.00001L7.73351 13.2V25.6664ZM7.73351 27.9C7.08871 27.9 6.54978 27.6832 6.11671 27.2496C5.68311 26.8165 5.46631 26.2888 5.46631 25.6664V13.2336C5.46631 12.8779 5.54418 12.5445 5.69991 12.2336C5.85564 11.9221 6.07778 11.6555 6.36631 11.4336L14.6335 5.16641C14.8554 5.03308 15.0831 4.92775 15.3167 4.85041C15.5498 4.77255 15.7775 4.73361 15.9999 4.73361C16.2442 4.73361 16.4831 4.77255 16.7167 4.85041C16.9498 4.92775 17.1663 5.03308 17.3663 5.16641L25.6335 11.4336C25.922 11.6555 26.1442 11.9221 26.2999 12.2336C26.4556 12.5445 26.5335 12.8779 26.5335 13.2336V25.6664C26.5335 26.2888 26.3167 26.8165 25.8831 27.2496C25.45 27.6832 24.9111 27.9 24.2663 27.9H17.6335V19.5336H14.3663V27.9H7.73351Z" fill="white"/>
</svg>
