<svg viewBox="0 0 32 32" fill="none" xmlns="http://www.w3.org/2000/svg">
<path d="M7.8001 25.5336H13.0337V17.6H18.9665V25.5336H24.2001V13.2336L16.0001 7.03359L7.8001 13.2336V25.5336ZM7.8001 26.6664C7.48917 26.6664 7.2225 26.5555 7.0001 26.3336C6.7777 26.1112 6.6665 25.8445 6.6665 25.5336V13.2336C6.6665 13.0555 6.70544 12.8888 6.7833 12.7336C6.86117 12.5779 6.97797 12.4445 7.1337 12.3336L15.3337 6.13359C15.4446 6.06693 15.5556 6.01119 15.6665 5.96639C15.778 5.92213 15.8892 5.89999 16.0001 5.89999C16.1334 5.89999 16.2556 5.92213 16.3665 5.96639C16.478 6.01119 16.578 6.06693 16.6665 6.13359L24.8665 12.3336C25.0222 12.4445 25.139 12.5779 25.2169 12.7336C25.2948 12.8888 25.3337 13.0555 25.3337 13.2336V25.5336C25.3337 25.8445 25.2225 26.1112 25.0001 26.3336C24.7777 26.5555 24.511 26.6664 24.2001 26.6664H17.8337V18.7336H14.1665V26.6664H7.8001Z" fill="white"/>
</svg>
