<svg width="48" height="48" viewBox="0 0 48 48" fill="none" xmlns="http://www.w3.org/2000/svg">
<g clip-path="url(#clip0_1791_6938)">
<path d="M42.016 6C43.112 6 44 6.89 44 7.986V26.684C42.7153 26.2302 41.3625 25.9989 40 26V10H8L8.002 38L26.586 19.414C26.9299 19.069 27.388 18.8615 27.8742 18.8305C28.3604 18.7996 28.8411 18.9473 29.226 19.246L29.412 19.416L36.504 26.516C34.9533 26.9885 33.5143 27.7702 32.2739 28.8139C31.0335 29.8576 30.0172 31.1417 29.2865 32.5888C28.5558 34.0359 28.1257 35.616 28.0221 37.2338C27.9186 38.8516 28.1437 40.4736 28.684 42.002L5.984 42C5.45763 41.9995 4.95299 41.79 4.58098 41.4176C4.20896 41.0452 4 40.5404 4 40.014V7.986C4.00366 7.46076 4.2138 6.95803 4.58503 6.58644C4.95625 6.21484 5.45876 6.00419 5.984 6H42.016ZM16 14C17.0609 14 18.0783 14.4214 18.8284 15.1716C19.5786 15.9217 20 16.9391 20 18C20 19.0609 19.5786 20.0783 18.8284 20.8284C18.0783 21.5786 17.0609 22 16 22C14.9391 22 13.9217 21.5786 13.1716 20.8284C12.4214 20.0783 12 19.0609 12 18C12 16.9391 12.4214 15.9217 13.1716 15.1716C13.9217 14.4214 14.9391 14 16 14Z" fill="#9CA3AF"/>
<path d="M40 35.1716L35.7573 30.9289L32.9289 33.7574L37.1716 38L32.9289 42.2426L35.7573 45.0711L40 40.8284L44.2426 45.0711L47.0711 42.2426L42.8284 38L47.0711 33.7574L44.2426 30.9289L40 35.1716Z" fill="#9CA3AF"/>
</g>
<defs>
<clipPath id="clip0_1791_6938">
<rect width="48" height="48" fill="white"/>
</clipPath>
</defs>
</svg>
