<svg viewBox="0 0 40 40" fill="none" xmlns="http://www.w3.org/2000/svg">
<g clip-path="url(#clip0_462_3294)">
<path d="M20 40C31.0457 40 40 31.0457 40 20C40 8.9543 31.0457 0 20 0C8.9543 0 0 8.9543 0 20C0 31.0457 8.9543 40 20 40Z" fill="#FAE300"/>
<path d="M20 10.5833C13.7833 10.5833 8.75 14.5667 8.75 19.4833C8.75 22.675 10.8834 25.475 14.0834 27.05C13.85 27.925 13.25 30.2333 13.1084 30.725C12.9667 31.2166 13.3334 31.325 13.5834 31.1583L17.9084 28.2167C18.6008 28.3207 19.2998 28.3736 20 28.375C26.2083 28.375 31.25 24.3917 31.25 19.4833C31.25 14.575 26.25 10.5833 20 10.5833Z" fill="#391B1B"/>
</g>
<defs>
<clipPath id="clip0_462_3294">
<rect width="40" height="40" fill="white"/>
</clipPath>
</defs>
</svg>
