<svg viewBox="0 0 20 18" fill="#111B26" xmlns="http://www.w3.org/2000/svg">
<path d="M10 14.125C11.15 14.125 12.125 13.725 12.925 12.925C13.725 12.125 14.125 11.15 14.125 10C14.125 8.85 13.725 7.875 12.925 7.075C12.125 6.275 11.15 5.875 10 5.875C8.85 5.875 7.875 6.275 7.075 7.075C6.275 7.875 5.875 8.85 5.875 10C5.875 11.15 6.275 12.125 7.075 12.925C7.875 13.725 8.85 14.125 10 14.125ZM10 12.625C9.26667 12.625 8.64567 12.371 8.137 11.863C7.629 11.3543 7.375 10.7333 7.375 10C7.375 9.26667 7.629 8.64567 8.137 8.137C8.64567 7.629 9.26667 7.375 10 7.375C10.7333 7.375 11.3543 7.629 11.863 8.137C12.371 8.64567 12.625 9.26667 12.625 10C12.625 10.7333 12.371 11.3543 11.863 11.863C11.3543 12.371 10.7333 12.625 10 12.625ZM2.3 17.5C1.8 17.5 1.375 17.325 1.025 16.975C0.675 16.625 0.5 16.2 0.5 15.7V4.3C0.5 3.8 0.675 3.375 1.025 3.025C1.375 2.675 1.8 2.5 2.3 2.5H5.35L7.2 0.5H12.8L14.65 2.5H17.7C18.2 2.5 18.625 2.675 18.975 3.025C19.325 3.375 19.5 3.8 19.5 4.3V15.7C19.5 16.2 19.325 16.625 18.975 16.975C18.625 17.325 18.2 17.5 17.7 17.5H2.3ZM17.7 16C17.7833 16 17.8543 15.971 17.913 15.913C17.971 15.8543 18 15.7833 18 15.7V4.3C18 4.21667 17.971 4.146 17.913 4.088C17.8543 4.02933 17.7833 4 17.7 4H13.975L12.125 2H7.875L6.025 4H2.3C2.21667 4 2.146 4.02933 2.088 4.088C2.02933 4.146 2 4.21667 2 4.3V15.7C2 15.7833 2.02933 15.8543 2.088 15.913C2.146 15.971 2.21667 16 2.3 16H17.7Z" fill="currentColor"/>
</svg>
