<svg width="24" height="24" viewBox="0 0 24 24" fill="none" xmlns="http://www.w3.org/2000/svg">
<mask id="mask0_1161_5415" style="mask-type:alpha" maskUnits="userSpaceOnUse" x="0" y="0" width="24" height="24">
<rect width="24" height="24" fill="#D9D9D9"/>
</mask>
<g mask="url(#mask0_1161_5415)">
<path d="M12.0004 21.4999C10.8171 21.4999 9.71306 21.2749 8.68839 20.8249C7.66306 20.3749 6.76706 19.7666 6.00039 18.9999C5.23372 18.2332 4.62539 17.3372 4.17539 16.3119C3.72539 15.2872 3.50039 14.1832 3.50039 12.9999C3.50039 11.8166 3.72539 10.7126 4.17539 9.6879C4.62539 8.66257 5.23372 7.76657 6.00039 6.9999C6.76706 6.23324 7.66306 5.6249 8.68839 5.1749C9.71306 4.7249 10.8171 4.4999 12.0004 4.4999C13.1837 4.4999 14.2877 4.7249 15.3124 5.1749C16.3377 5.6249 17.2337 6.23324 18.0004 6.9999C18.7671 7.76657 19.3754 8.66257 19.8254 9.6879C20.2754 10.7126 20.5004 11.8166 20.5004 12.9999C20.5004 14.1832 20.2754 15.2872 19.8254 16.3119C19.3754 17.3372 18.7671 18.2332 18.0004 18.9999C17.2337 19.7666 16.3377 20.3749 15.3124 20.8249C14.2877 21.2749 13.1837 21.4999 12.0004 21.4999ZM14.9754 17.0249L16.0254 15.9749L12.7504 12.6999V7.9999H11.2504V13.2999L14.9754 17.0249ZM5.75039 2.8999L6.80039 3.9499L2.95039 7.7999L1.90039 6.7499L5.75039 2.8999ZM18.2504 2.8999L22.1004 6.7499L21.0504 7.7999L17.2004 3.9499L18.2504 2.8999ZM12.0004 19.9999C13.9504 19.9999 15.6044 19.3206 16.9624 17.9619C18.3211 16.6039 19.0004 14.9499 19.0004 12.9999C19.0004 11.0499 18.3211 9.39557 16.9624 8.0369C15.6044 6.6789 13.9504 5.9999 12.0004 5.9999C10.0504 5.9999 8.39639 6.6789 7.03839 8.0369C5.67972 9.39557 5.00039 11.0499 5.00039 12.9999C5.00039 14.9499 5.67972 16.6039 7.03839 17.9619C8.39639 19.3206 10.0504 19.9999 12.0004 19.9999Z" fill="white"/>
</g>
</svg>
