<svg viewBox="0 0 12 13" fill="none" xmlns="http://www.w3.org/2000/svg">
<path d="M5.74303 10.07L2.963 11.6C2.88424 11.6417 2.79527 11.66 2.70647 11.653C2.61766 11.646 2.53268 11.6139 2.46141 11.5605C2.39015 11.507 2.33559 11.4344 2.304 11.3511C2.27241 11.2678 2.2651 11.1773 2.28301 11.09L2.81303 7.85004C2.82808 7.7732 2.8241 7.69385 2.80144 7.6189C2.77878 7.54395 2.73813 7.47568 2.68303 7.42004L0.393052 5.15002C0.33007 5.08562 0.285603 5.00541 0.26445 4.91785C0.243298 4.83029 0.246239 4.73864 0.272873 4.65259C0.299508 4.56654 0.348899 4.48925 0.415818 4.42896C0.482736 4.36866 0.56465 4.32756 0.653 4.31L3.77306 3.84003C3.84806 3.82818 3.91907 3.79833 3.98003 3.75305C4.04098 3.70777 4.09003 3.6484 4.12303 3.58002L5.51305 0.630005C5.54928 0.548897 5.60819 0.480037 5.68272 0.431702C5.75726 0.383366 5.8442 0.357666 5.93303 0.357666C6.02186 0.357666 6.1088 0.383366 6.18333 0.431702C6.25787 0.480037 6.31678 0.548897 6.35301 0.630005L7.74303 3.58002C7.77602 3.6484 7.82508 3.70777 7.88603 3.75305C7.94699 3.79833 8.018 3.82818 8.093 3.84003L11.203 4.31C11.2914 4.32756 11.3733 4.36866 11.4402 4.42896C11.5071 4.48925 11.5565 4.56654 11.5832 4.65259C11.6098 4.73864 11.6128 4.83029 11.5916 4.91785C11.5704 5.00541 11.526 5.08562 11.463 5.15002L9.213 7.44C9.15879 7.49651 9.1181 7.56458 9.09386 7.63904C9.06962 7.71349 9.0625 7.79241 9.07304 7.87L9.60301 11.11C9.61954 11.196 9.61174 11.2848 9.58049 11.3666C9.54924 11.4483 9.49578 11.5197 9.42613 11.5728C9.35649 11.6258 9.27345 11.6583 9.18633 11.6666C9.0992 11.675 9.01147 11.6588 8.93303 11.62L6.14305 10.09C6.08197 10.0574 6.01438 10.0387 5.94524 10.0353C5.87609 10.0318 5.80706 10.0437 5.74303 10.07Z" fill="#736EFF"/>
<path d="M2.74289 12C2.57334 11.9972 2.40897 11.9412 2.27292 11.84C2.15411 11.7446 2.0628 11.6193 2.00833 11.477C1.95386 11.3347 1.93813 11.1804 1.96286 11.03L2.49289 7.79004C2.50199 7.76958 2.50668 7.74743 2.50668 7.72504C2.50668 7.70264 2.50199 7.6805 2.49289 7.66003L0.24289 5.37C0.133867 5.26089 0.0573916 5.12359 0.0220645 4.97345C-0.0132627 4.82331 -0.00605662 4.66629 0.0428775 4.52002C0.0839278 4.37476 0.166275 4.24454 0.279877 4.14514C0.393478 4.04574 0.533467 3.98143 0.682892 3.96002L3.79288 3.48004C3.81581 3.47882 3.83781 3.4704 3.85574 3.45605C3.87368 3.44171 3.88668 3.42213 3.89291 3.40002L5.29288 0.460022C5.35444 0.323177 5.45418 0.207018 5.58011 0.125427C5.70604 0.0438368 5.85285 0.000257262 6.0029 0C6.15241 0.00265683 6.29818 0.0471714 6.42368 0.128479C6.54917 0.209787 6.64933 0.324654 6.71286 0.460022L8.10287 3.40002C8.11096 3.42292 8.12584 3.44281 8.14548 3.45709C8.16512 3.47138 8.18858 3.4794 8.21286 3.48004L11.3229 3.96002C11.4714 3.98376 11.6103 4.0489 11.7235 4.14795C11.8367 4.247 11.9196 4.37595 11.9629 4.52002C12.0064 4.66685 12.0108 4.82248 11.9757 4.97156C11.9407 5.12063 11.8673 5.25797 11.7629 5.37L9.5029 7.66003C9.48842 7.70216 9.48842 7.74791 9.5029 7.79004L10.0429 11.03C10.0687 11.1814 10.0525 11.3369 9.99606 11.4797C9.93965 11.6225 9.84515 11.7472 9.72287 11.84C9.60649 11.9321 9.46512 11.987 9.31711 11.9977C9.1691 12.0084 9.02133 11.9744 8.89291 11.9L6.10288 10.37C6.08259 10.3602 6.06038 10.3552 6.03787 10.3552C6.01537 10.3552 5.99315 10.3602 5.97287 10.37L3.1929 11.9C3.05737 11.9804 2.89971 12.0154 2.74289 12ZM5.96286 0.680054C5.93552 0.677978 5.90827 0.684545 5.88492 0.698914C5.86157 0.713282 5.84338 0.734671 5.83292 0.76001L4.4429 3.71002C4.38657 3.82784 4.30256 3.93031 4.19809 4.00867C4.09362 4.08702 3.97174 4.13895 3.84287 4.16003L0.73288 4.63C0.707005 4.63466 0.682998 4.64656 0.663544 4.66425C0.64409 4.68193 0.62999 4.70473 0.622895 4.73004C0.609729 4.75284 0.602814 4.77872 0.602814 4.80505C0.602814 4.83138 0.609729 4.8572 0.622895 4.88L2.87289 7.17004C2.96783 7.26586 3.0383 7.3831 3.07834 7.5119C3.11837 7.64071 3.12677 7.77728 3.10287 7.91003L2.57291 11.14C2.56755 11.1681 2.57033 11.1972 2.58096 11.2238C2.5916 11.2504 2.60963 11.2734 2.6329 11.29C2.65261 11.3063 2.67737 11.3152 2.70291 11.3152C2.72846 11.3152 2.75321 11.3063 2.77292 11.29L5.5629 9.76001C5.67571 9.69602 5.80319 9.66241 5.93289 9.66241C6.06259 9.66241 6.19007 9.69602 6.30289 9.76001L9.08292 11.29C9.10486 11.3055 9.13101 11.3138 9.15787 11.3138C9.18473 11.3138 9.21094 11.3055 9.23288 11.29C9.24605 11.2672 9.25296 11.2414 9.25296 11.215C9.25296 11.1887 9.24605 11.1628 9.23288 11.14L8.70291 7.91003C8.68146 7.7773 8.69102 7.6414 8.73093 7.513C8.77083 7.38461 8.83998 7.26723 8.93289 7.17004L11.1829 4.88C11.1971 4.85758 11.2047 4.83161 11.2047 4.80505C11.2047 4.77849 11.1971 4.75247 11.1829 4.73004C11.1751 4.70334 11.1595 4.67955 11.1382 4.66174C11.1168 4.64393 11.0906 4.63286 11.0629 4.63L8.04288 4.15002C7.914 4.12894 7.79213 4.07701 7.68765 3.99866C7.58318 3.9203 7.49923 3.81783 7.4429 3.70001L6.05289 0.75C6.04155 0.728177 6.02426 0.710022 6.00302 0.697632C5.98178 0.685241 5.95747 0.679178 5.93289 0.680054H5.96286Z" fill="#4B5563"/>
</svg>
