<svg viewBox="0 0 13 12" fill="none" xmlns="http://www.w3.org/2000/svg">
<path d="M5.53487 0.610001L4.14445 3.61C4.1107 3.67882 4.06156 3.73897 4.00086 3.78578C3.94015 3.8326 3.86953 3.86485 3.79438 3.88002L0.673479 4.34999C0.587035 4.36864 0.507036 4.4099 0.441722 4.4695C0.376409 4.5291 0.328102 4.60492 0.301667 4.68929C0.275232 4.77365 0.271662 4.86352 0.291288 4.94972C0.310914 5.03593 0.353039 5.11539 0.413394 5.18001L2.67406 7.46999C2.72917 7.52562 2.76983 7.59389 2.7925 7.66884C2.81517 7.74379 2.81915 7.82314 2.8041 7.89998L2.27392 11.14C2.25601 11.2272 2.26332 11.3178 2.29492 11.4011C2.32652 11.4844 2.38103 11.557 2.45231 11.6104C2.5236 11.6639 2.60867 11.696 2.6975 11.703C2.78633 11.71 2.87526 11.6916 2.95405 11.65L5.73488 10.12C5.80389 10.088 5.87886 10.071 5.95491 10.07V0.389969C5.87134 0.383916 5.78786 0.401334 5.71363 0.440201C5.63941 0.479069 5.57748 0.537874 5.53487 0.610001Z" fill="#736EFF"/>
<path d="M6.37524 0.609998L7.76566 3.61C7.79878 3.67928 7.84771 3.7398 7.90852 3.78669C7.96934 3.83359 8.0403 3.86558 8.11574 3.88002L11.2266 4.34999C11.315 4.36564 11.3974 4.40524 11.4649 4.46449C11.5323 4.52374 11.5821 4.60036 11.6089 4.68599C11.6358 4.77162 11.6385 4.86298 11.617 4.95009C11.5954 5.0372 11.5504 5.11674 11.4867 5.18001L9.23606 7.46998C9.18184 7.52649 9.14113 7.5945 9.11688 7.66896C9.09263 7.74341 9.08545 7.82239 9.096 7.89998L9.62618 11.14C9.64705 11.2268 9.64222 11.3178 9.61226 11.4019C9.58231 11.486 9.5286 11.5595 9.45756 11.6135C9.38651 11.6676 9.30117 11.6998 9.21212 11.7063C9.12308 11.7128 9.03406 11.6932 8.95595 11.65L6.16522 10.12C6.09968 10.0882 6.0279 10.0712 5.95508 10.07V0.389966C6.03833 0.386121 6.12119 0.40447 6.19502 0.443128C6.26884 0.481785 6.331 0.539394 6.37524 0.609998Z" fill="white"/>
<path d="M11.7663 5.37C11.8716 5.25851 11.9456 5.12113 11.9807 4.97186C12.0158 4.82259 12.0108 4.6667 11.9663 4.51996C11.922 4.37646 11.8387 4.24812 11.7256 4.14923C11.6126 4.05034 11.4744 3.9848 11.3262 3.95996L8.21521 3.48999C8.19186 3.48627 8.16974 3.47704 8.15062 3.46313C8.1315 3.44923 8.11593 3.43103 8.1052 3.40997L6.71478 0.459961C6.65123 0.324593 6.55104 0.209787 6.42551 0.128479C6.29998 0.0471714 6.15417 0.00265683 6.00461 0C5.85452 0.000257262 5.70773 0.0437758 5.58176 0.125366C5.45579 0.206957 5.35602 0.323116 5.29445 0.459961L3.89402 3.40997C3.88375 3.42948 3.86959 3.44668 3.85238 3.46045C3.83517 3.47422 3.8153 3.48426 3.79401 3.48999L0.683128 3.95996C0.534549 3.9837 0.395612 4.04884 0.282377 4.14789C0.169142 4.24694 0.0861821 4.37589 0.042928 4.51996C-0.00602029 4.66623 -0.0132895 4.82325 0.0220479 4.97339C0.0573853 5.12353 0.133882 5.26089 0.242937 5.37L2.49359 7.65997C2.51082 7.7016 2.51082 7.74836 2.49359 7.78998L1.96341 11.03C1.9376 11.1804 1.9528 11.335 2.00736 11.4775C2.06193 11.62 2.15389 11.7452 2.27355 11.84C2.39151 11.9329 2.53464 11.9883 2.68444 11.999C2.83424 12.0097 2.98379 11.9752 3.11376 11.9L5.8946 10.38H5.96456H6.02464L8.81549 11.9C8.92693 11.9676 9.05525 12.0023 9.18559 12C9.35263 12.0001 9.51476 11.9437 9.64568 11.84C9.76886 11.7479 9.86402 11.6234 9.92054 11.4803C9.97706 11.3373 9.99266 11.1814 9.96572 11.03L9.42565 7.78998C9.41738 7.77105 9.41307 7.75063 9.41307 7.72998C9.41307 7.70933 9.41738 7.68891 9.42565 7.66998L11.7663 5.37ZM2.84366 11.3C2.82395 11.3162 2.79925 11.3251 2.7737 11.3251C2.74815 11.3251 2.72332 11.3162 2.70361 11.3C2.68116 11.2849 2.66359 11.2637 2.65294 11.2388C2.64229 11.214 2.63907 11.1866 2.64366 11.16L3.17384 7.91998C3.19777 7.78877 3.18926 7.6537 3.14917 7.52649C3.10908 7.39928 3.03863 7.2838 2.94379 7.19L0.69314 4.88995C0.679971 4.86715 0.672993 4.84133 0.672993 4.815C0.672993 4.78867 0.679971 4.76279 0.69314 4.73999C0.702018 4.71566 0.71659 4.69387 0.735755 4.67645C0.754921 4.65903 0.778092 4.64648 0.803158 4.63995L3.91404 4.16998C4.04296 4.1489 4.16487 4.09697 4.26937 4.01862C4.37387 3.94026 4.45785 3.83779 4.51419 3.71997L5.70448 1.19995V9.76001L2.84366 11.3ZM8.8454 7.90997L9.37558 11.15C9.38787 11.1712 9.39439 11.1954 9.39439 11.22C9.39439 11.2445 9.38787 11.2687 9.37558 11.29C9.35364 11.3055 9.32748 11.3138 9.30061 11.3138C9.27374 11.3138 9.24746 11.3055 9.22552 11.29L6.4448 9.76001V1.22998L7.63509 3.75C7.69143 3.86782 7.77541 3.97023 7.87991 4.04858C7.98441 4.12694 8.10632 4.17887 8.23524 4.19995L11.3461 4.66998C11.373 4.67501 11.3983 4.68684 11.4193 4.70435C11.4403 4.72185 11.4564 4.74442 11.4662 4.76996C11.4817 4.7919 11.4901 4.81811 11.4901 4.84497C11.4901 4.87183 11.4817 4.89804 11.4662 4.91998L9.2155 7.21997C9.08812 7.28741 8.98006 7.38614 8.90133 7.50684C8.82259 7.62754 8.77579 7.76625 8.76542 7.90997H8.8454Z" fill="#4B5563"/>
</svg>
