<svg viewBox="0 0 12 12" fill="none" xmlns="http://www.w3.org/2000/svg">
<path d="M5.74168 10.0756L2.96165 11.6048C2.88176 11.6432 2.79287 11.6588 2.70469 11.6497C2.6165 11.6407 2.53243 11.6074 2.46201 11.5536C2.3916 11.4998 2.33748 11.4275 2.30564 11.3448C2.2738 11.2621 2.26557 11.1722 2.28172 11.0851L2.81162 7.85655C2.82583 7.77819 2.8215 7.69762 2.79893 7.62125C2.77635 7.54487 2.73615 7.47481 2.68162 7.41675L0.42173 5.12782C0.361393 5.06323 0.319159 4.9838 0.299538 4.89764C0.279917 4.81148 0.283608 4.72165 0.310036 4.63732C0.336464 4.55299 0.384756 4.47721 0.450051 4.41763C0.515345 4.35806 0.595199 4.31682 0.681618 4.29818L3.80174 3.82843C3.87805 3.81644 3.95004 3.78542 4.01121 3.73826C4.07238 3.69109 4.12074 3.62927 4.15171 3.55853L5.54173 0.619871C5.57796 0.5388 5.63687 0.469972 5.7114 0.421658C5.78593 0.373344 5.87281 0.347595 5.96165 0.347595C6.05048 0.347595 6.13748 0.373344 6.21201 0.421658C6.28654 0.469972 6.34546 0.5388 6.38169 0.619871L7.77171 3.55853C7.80268 3.62927 7.85092 3.69109 7.91209 3.73826C7.97326 3.78542 8.04536 3.81644 8.12168 3.82843L11.2317 4.29818C11.32 4.31382 11.4024 4.35341 11.4698 4.41263C11.5372 4.47186 11.587 4.54844 11.6139 4.63403C11.6407 4.71962 11.6435 4.81094 11.6219 4.89801C11.6004 4.98507 11.5553 5.06459 11.4917 5.12782L9.24168 7.41675C9.18784 7.47553 9.14744 7.54531 9.12327 7.62125C9.09909 7.69719 9.09171 7.77748 9.10166 7.85655L9.63169 11.0851C9.65055 11.1718 9.64451 11.2619 9.61423 11.3453C9.58396 11.4286 9.53063 11.5017 9.46055 11.556C9.39047 11.6104 9.30652 11.6439 9.21824 11.6525C9.12995 11.6611 9.04094 11.6446 8.96165 11.6048L6.17173 10.0756C6.10671 10.0368 6.03233 10.0164 5.95664 10.0164C5.88095 10.0164 5.8067 10.0368 5.74168 10.0756Z" fill="white"/>
<path d="M2.74143 11.9945C2.57101 11.9969 2.40503 11.9404 2.27146 11.8346C2.15099 11.7406 2.05839 11.6155 2.00376 11.4728C1.94914 11.3302 1.9345 11.1753 1.9614 11.0249L2.49143 7.79642C2.50118 7.77615 2.5062 7.75394 2.5062 7.73145C2.5062 7.70896 2.50118 7.68675 2.49143 7.66648L0.241432 5.37755C0.133381 5.26786 0.0575884 5.1306 0.0223158 4.98076C-0.0129568 4.83092 -0.00630337 4.67423 0.0414809 4.5279C0.0831138 4.38204 0.165342 4.25102 0.278663 4.15014C0.391985 4.04926 0.531619 3.98273 0.681373 3.95821L3.79148 3.4884C3.81276 3.48267 3.83262 3.47263 3.84983 3.45887C3.86704 3.44511 3.8812 3.42791 3.89146 3.40842L5.29148 0.469756C5.35049 0.330337 5.44925 0.211432 5.57554 0.127872C5.70183 0.044311 5.84999 -0.000165737 6.00144 4.64097e-07C6.15232 0.00235458 6.29933 0.0478526 6.42515 0.131105C6.55097 0.214358 6.6503 0.331852 6.7114 0.469756L8.10142 3.40842C8.11215 3.42946 8.12771 3.44772 8.14683 3.46161C8.16594 3.47551 8.18806 3.48467 8.2114 3.4884L11.3214 3.95821C11.4707 3.98385 11.6099 4.05083 11.723 4.15155C11.8361 4.25226 11.9187 4.38261 11.9614 4.5279C12.0049 4.67467 12.0094 4.83029 11.9743 4.97929C11.9393 5.1283 11.8659 5.26557 11.7615 5.37755L9.50144 7.66648C9.48525 7.70828 9.48525 7.75462 9.50144 7.79642L10.0415 11.0249C10.0684 11.1763 10.0527 11.3321 9.99619 11.4751C9.93969 11.6181 9.84455 11.7425 9.72141 11.8346C9.60608 11.9282 9.46527 11.9849 9.31724 11.9974C9.16921 12.0099 9.02085 11.9775 8.89146 11.9045L6.10142 10.3753C6.08114 10.3655 6.05898 10.3604 6.03648 10.3604C6.01397 10.3604 5.99169 10.3655 5.97141 10.3753L3.19138 11.9045C3.05264 11.9757 2.89688 12.0069 2.74143 11.9945ZM5.9614 0.689688C5.93407 0.687612 5.90675 0.694238 5.8834 0.7086C5.86005 0.722962 5.84186 0.744341 5.8314 0.769668L4.44138 3.70833C4.38705 3.82847 4.30388 3.93327 4.1992 4.01349C4.09451 4.09371 3.97159 4.14682 3.84141 4.16808L0.731422 4.6379C0.705547 4.64255 0.68154 4.65438 0.662086 4.67206C0.642633 4.68974 0.628533 4.71252 0.621437 4.73782C0.608272 4.76062 0.601295 4.78648 0.601295 4.8128C0.601295 4.83912 0.608272 4.86499 0.621437 4.88778L2.87144 7.17671C2.96625 7.27047 3.0368 7.38596 3.07688 7.51311C3.11696 7.64026 3.12534 7.77521 3.10142 7.90636L2.57139 11.1449C2.56681 11.1716 2.57014 11.1989 2.58079 11.2238C2.59143 11.2486 2.609 11.2698 2.63145 11.2848C2.65115 11.3011 2.67585 11.31 2.70139 11.31C2.72694 11.31 2.75176 11.3011 2.77146 11.2848L5.56138 9.76556C5.6742 9.7016 5.80167 9.66794 5.93137 9.66794C6.06107 9.66794 6.18867 9.7016 6.30149 9.76556L9.0814 11.2848C9.10334 11.3003 9.12961 11.3087 9.15647 11.3087C9.18333 11.3087 9.20948 11.3003 9.23142 11.2848C9.24478 11.2639 9.25193 11.2396 9.25193 11.2148C9.25193 11.19 9.24478 11.1658 9.23142 11.1449L8.70139 7.90636C8.67998 7.77523 8.68965 7.64093 8.72959 7.5142C8.76954 7.38748 8.83863 7.27189 8.93137 7.17671L11.1814 4.88778C11.1956 4.86536 11.2032 4.83935 11.2032 4.8128C11.2032 4.78625 11.1956 4.76024 11.1814 4.73782C11.1736 4.71113 11.1581 4.68736 11.1367 4.66956C11.1153 4.65175 11.0891 4.64075 11.0614 4.6379L7.95139 4.16808C7.82121 4.14682 7.69829 4.09371 7.59361 4.01349C7.48892 3.93327 7.40575 3.82847 7.35142 3.70833L5.9614 0.769668C5.9607 0.740396 5.9501 0.712202 5.93137 0.689688H5.9614Z" fill="#4B5563"/>
</svg>
