<svg width="32" height="32" viewBox="0 0 32 32" fill="none" xmlns="http://www.w3.org/2000/svg">
<mask id="mask0_2521_3315" style="mask-type:alpha" maskUnits="userSpaceOnUse" x="0" y="0" width="32" height="32">
<rect width="32" height="32" fill="#D9D9D9"/>
</mask>
<g mask="url(#mask0_2521_3315)">
<path d="M25.6999 26.2335L17.5999 18.0999C16.9332 18.6999 16.1666 19.1554 15.2999 19.4663C14.4332 19.7778 13.5666 19.9335 12.6999 19.9335C10.6556 19.9335 8.9279 19.2279 7.5167 17.8167C6.1055 16.4055 5.3999 14.6778 5.3999 12.6335C5.3999 10.5887 6.1055 8.86096 7.5167 7.4503C8.9279 6.0391 10.6556 5.3335 12.6999 5.3335C14.7223 5.3335 16.45 6.0391 17.8831 7.4503C19.3167 8.86096 20.0335 10.5887 20.0335 12.6335C20.0335 13.5444 19.8668 14.4332 19.5335 15.2999C19.2002 16.1666 18.7444 16.9111 18.1663 17.5335L26.3335 25.6663C26.422 25.7554 26.4663 25.85 26.4663 25.9503C26.4663 26.05 26.4108 26.1444 26.2999 26.2335C26.2108 26.322 26.1108 26.3663 25.9999 26.3663C25.889 26.3663 25.789 26.322 25.6999 26.2335ZM12.6999 19.1335C14.5442 19.1335 16.0943 18.5111 17.3503 17.2663C18.6058 16.022 19.2335 14.4778 19.2335 12.6335C19.2335 10.7887 18.6058 9.24416 17.3503 7.9999C16.0943 6.75563 14.5442 6.1335 12.6999 6.1335C10.8775 6.1335 9.33857 6.75563 8.0831 7.9999C6.82764 9.24416 6.1999 10.7887 6.1999 12.6335C6.1999 14.4778 6.82764 16.022 8.0831 17.2663C9.33857 18.5111 10.8775 19.1335 12.6999 19.1335Z" fill="white"/>
</g>
</svg>
