<svg width="80" height="80" viewBox="0 0 80 80" fill="none" xmlns="http://www.w3.org/2000/svg">
<path d="M68.2078 58.9436L63.6814 47.0325C62.6964 44.3736 57.9479 43.4683 51.5539 44.2825C51.1098 43.6732 50.0451 42.1132 49.7832 40.9574C51.1269 39.5283 51.7304 38.1732 51.3319 37.0971L49.3733 31.7963C48.7811 30.1964 46.1165 29.5644 42.4441 29.8776L40.9979 25.9604C42.4555 23.5633 43.2925 20.7507 43.2925 17.7445C43.2925 8.99905 36.1982 1.90479 27.4528 1.90479C18.7074 1.90479 11.6074 9.00474 11.6074 17.7502C11.6074 24.9014 16.3445 30.9423 22.8523 32.9123L24.2814 36.7726C21.5827 38.8166 20.1593 40.8891 20.7229 42.4093L22.6815 47.71C23.0516 48.7064 24.2302 49.327 25.9554 49.5775C26.0522 49.6345 26.1546 49.7028 26.2571 49.7939C26.9518 50.3746 27.3105 52.7603 27.3275 53.3183C22.0837 56.8198 19.1629 60.5321 20.1308 63.1511L24.9476 76.1326L25.2835 76.0643C28.1588 79.2015 38.2821 78.6891 49.2537 74.6295C61.2786 70.1828 69.7678 63.1568 68.2078 58.9436Z" fill="white"/>
<path d="M24.2814 36.7667C21.5827 38.8108 20.1593 40.8832 20.7229 42.4034C25.5967 42.7735 28.7396 40.479 29.7302 39.6192C29.9352 39.4427 29.9808 39.1467 29.8498 38.9189L28.3638 36.3283C28.3638 36.3283 28.3638 34.5405 37.3369 29.3024C15.5417 31.5628 13.2757 14.1801 15.0805 7.85449C12.9113 10.5647 11.6074 14.0036 11.6074 17.75C11.6074 24.9012 16.3445 30.9422 22.8523 32.9122L24.2814 36.7724V36.7667Z" fill="#E2E8F0"/>
<path d="M31.6149 65.7133C25.2323 66.835 21.8902 65.3888 20.7002 64.6714L24.9533 76.127L25.2893 76.0586C27.0315 77.9603 31.4327 78.5183 37.0694 77.7667L33.0668 66.5446C32.8561 65.9524 32.2412 65.5994 31.6206 65.7133H31.6149Z" fill="#E2E8F0"/>
<path d="M30.1857 49.3101L28.8876 44.6641C28.8135 44.3965 28.5516 44.2314 28.2783 44.2769C24.1391 45 22.1121 44.294 21.1955 43.7132L22.6701 47.7045C23.0402 48.7009 24.2188 49.3215 25.944 49.572C26.0407 49.6289 26.1432 49.6972 26.2457 49.7883C26.9403 50.3691 27.299 52.7547 27.3161 53.3127C22.0723 56.8143 19.1515 60.5265 20.1194 63.1456L20.5122 64.2103C28.8989 60.0995 33.4595 56.2848 37.3198 52.9768C44.1863 47.1009 49.7661 40.9575 49.7661 40.9575C40.7759 48.6895 30.1743 49.3044 30.1743 49.3044L30.1857 49.3101Z" fill="#E2E8F0"/>
</svg>
