<svg viewBox="0 0 32 32" fill="none" xmlns="http://www.w3.org/2000/svg">
<path d="M6.63351 28.0336C5.90017 28.0336 5.27244 27.7723 4.75031 27.2496C4.22764 26.7275 3.96631 26.0997 3.96631 25.3664V6.6336C3.96631 5.90027 4.22764 5.27253 4.75031 4.7504C5.27244 4.22773 5.90017 3.9664 6.63351 3.9664H25.3663C26.0996 3.9664 26.7274 4.22773 27.2495 4.7504C27.7722 5.27253 28.0335 5.90027 28.0335 6.6336V25.3664C28.0335 26.0997 27.7722 26.7275 27.2495 27.2496C26.7274 27.7723 26.0996 28.0336 25.3663 28.0336H6.63351ZM6.63351 25.8H14.8999V6.2H6.63351C6.52204 6.2 6.42204 6.24453 6.33351 6.3336C6.24444 6.42213 6.19991 6.52213 6.19991 6.6336V25.3664C6.19991 25.4779 6.24444 25.5779 6.33351 25.6664C6.42204 25.7555 6.52204 25.8 6.63351 25.8ZM17.1335 25.8H25.3663C25.4778 25.8 25.5778 25.7555 25.6663 25.6664C25.7554 25.5779 25.7999 25.4779 25.7999 25.3664V16H17.1335V25.8ZM17.1335 13.7336H25.7999V6.6336C25.7999 6.52213 25.7554 6.42213 25.6663 6.3336C25.5778 6.24453 25.4778 6.2 25.3663 6.2H17.1335V13.7336Z" fill="white"/>
</svg>
