<svg viewBox="0 0 32 32" fill="none" xmlns="http://www.w3.org/2000/svg">
<path d="M7.2663 26.6664C6.73296 26.6664 6.2775 26.4776 5.8999 26.1C5.5223 25.7224 5.3335 25.2669 5.3335 24.7336V7.26639C5.3335 6.73305 5.5223 6.27759 5.8999 5.89999C6.2775 5.52239 6.73296 5.33359 7.2663 5.33359H24.7335C25.2668 5.33359 25.7223 5.52239 26.0999 5.89999C26.4775 6.27759 26.6663 6.73305 26.6663 7.26639V24.7336C26.6663 25.2669 26.4775 25.7224 26.0999 26.1C25.7223 26.4776 25.2668 26.6664 24.7335 26.6664H7.2663ZM7.2663 25.5336H15.4335V6.46639H7.2663C7.0663 6.46639 6.8831 6.54985 6.7167 6.71679C6.54976 6.88319 6.4663 7.06639 6.4663 7.26639V24.7336C6.4663 24.9336 6.54976 25.1168 6.7167 25.2832C6.8831 25.4501 7.0663 25.5336 7.2663 25.5336ZM16.5663 25.5336H24.7335C24.9335 25.5336 25.1167 25.4501 25.2831 25.2832C25.45 25.1168 25.5335 24.9336 25.5335 24.7336V16H16.5663V25.5336ZM16.5663 14.8664H25.5335V7.26639C25.5335 7.06639 25.45 6.88319 25.2831 6.71679C25.1167 6.54985 24.9335 6.46639 24.7335 6.46639H16.5663V14.8664Z" fill="white"/>
</svg>
