<svg viewBox="0 0 18 14" fill="none" xmlns="http://www.w3.org/2000/svg">
<path d="M9 0C13.4854 0 17.2172 3.01778 18 7C17.218 10.9822 13.4854 14 9 14C4.51456 14 0.78279 10.9822 0 7C0.781958 3.01778 4.51456 0 9 0ZM9 12.4444C10.6966 12.4441 12.3428 11.9053 13.6692 10.9162C14.9956 9.92718 15.9236 8.54644 16.3013 7C15.9222 5.45479 14.9936 4.07556 13.6673 3.0878C12.341 2.10004 10.6956 1.56219 9 1.56219C7.3044 1.56219 5.65895 2.10004 4.33269 3.0878C3.00643 4.07556 2.07782 5.45479 1.69868 7C2.07643 8.54644 3.00444 9.92718 4.33083 10.9162C5.65723 11.9053 7.30343 12.4441 9 12.4444ZM9 10.5C8.00718 10.5 7.05503 10.1313 6.35301 9.47487C5.65098 8.8185 5.25659 7.92826 5.25659 7C5.25659 6.07174 5.65098 5.1815 6.35301 4.52513C7.05503 3.86875 8.00718 3.5 9 3.5C9.99282 3.5 10.945 3.86875 11.647 4.52513C12.349 5.1815 12.7434 6.07174 12.7434 7C12.7434 7.92826 12.349 8.8185 11.647 9.47487C10.945 10.1313 9.99282 10.5 9 10.5ZM9 8.94444C9.55156 8.94444 10.0805 8.73958 10.4706 8.37493C10.8606 8.01028 11.0797 7.5157 11.0797 7C11.0797 6.4843 10.8606 5.98972 10.4706 5.62507C10.0805 5.26042 9.55156 5.05556 9 5.05556C8.44844 5.05556 7.91946 5.26042 7.52945 5.62507C7.13943 5.98972 6.92033 6.4843 6.92033 7C6.92033 7.5157 7.13943 8.01028 7.52945 8.37493C7.91946 8.73958 8.44844 8.94444 9 8.94444Z" fill="#CBD5E1"/>
</svg>
