<svg viewBox="0 0 18 18" fill="none" xmlns="http://www.w3.org/2000/svg">
<path d="M13.8931 15.1915C12.43 16.138 10.7326 16.6393 9 16.6365C4.51456 16.6365 0.78279 13.3443 0 9C0.357729 7.02361 1.33235 5.21816 2.77845 3.85302L0.175525 1.20062L1.35262 0L17.8228 16.8002L16.6457 18L13.8922 15.1915H13.8931ZM3.95471 5.05449C2.8242 6.10289 2.03668 7.48016 1.69868 9C1.95847 10.1594 2.48002 11.241 3.22183 12.1586C3.96365 13.0762 4.90523 13.8045 5.97162 14.2855C7.03802 14.7666 8.19978 14.987 9.36443 14.9294C10.5291 14.8718 11.6645 14.5376 12.6802 13.9535L10.9932 12.2328C10.275 12.6942 9.42442 12.893 8.58094 12.7965C7.73745 12.7001 6.95114 12.3141 6.35097 11.702C5.7508 11.0898 5.3724 10.2878 5.27785 9.42744C5.18329 8.5671 5.37819 7.69952 5.83058 6.967L3.95471 5.05449ZM9.76033 10.9753L7.06341 8.22447C6.91539 8.60879 6.88055 9.02881 6.96317 9.43303C7.04579 9.83724 7.24227 10.2081 7.52852 10.5C7.81477 10.792 8.17833 10.9924 8.57463 11.0767C8.97092 11.161 9.38271 11.1254 9.7595 10.9745L9.76033 10.9753ZM16.3263 12.8963L15.1359 11.6829C15.692 10.8746 16.0879 9.9632 16.3013 9C16.0752 7.99006 15.6502 7.03755 15.052 6.20038C14.4538 5.36321 13.6949 4.65886 12.8215 4.13014C11.9481 3.60143 10.9784 3.25939 9.9714 3.12481C8.96437 2.99024 7.94103 3.06594 6.96358 3.34732L5.65089 2.00839C6.68823 1.59263 7.81874 1.36353 9 1.36353C13.4854 1.36353 17.2172 4.6557 18 9C17.7451 10.4133 17.1722 11.7471 16.3263 12.8963ZM8.76957 5.18855C9.29907 5.15518 9.82947 5.23698 10.3256 5.42852C10.8218 5.62007 11.2723 5.917 11.6475 6.29962C12.0226 6.68224 12.3137 7.14182 12.5015 7.64788C12.6893 8.15395 12.7695 8.69496 12.7368 9.23503L8.76874 5.18855H8.76957Z" fill="#CBD5E1"/>
</svg>
