<svg width="32" height="32" viewBox="0 0 32 32" fill="none" xmlns="http://www.w3.org/2000/svg">
<mask id="mask0_2521_3328" style="mask-type:alpha" maskUnits="userSpaceOnUse" x="0" y="0" width="32" height="32">
<rect width="32" height="32" fill="#D9D9D9"/>
</mask>
<g mask="url(#mask0_2521_3328)">
<path d="M7.0666 25.4663H8.2666L22.6338 11.1335L21.4002 9.89991L7.0666 24.2663V25.4663ZM24.3666 10.5335L22.0002 8.16631L23.4666 6.69991C23.6223 6.54418 23.8114 6.46631 24.0338 6.46631C24.2557 6.46631 24.4557 6.55537 24.6338 6.73351L25.8338 7.93351C25.989 8.08871 26.0666 8.27751 26.0666 8.49991C26.0666 8.72231 25.9778 8.92231 25.8002 9.09991L24.3666 10.5335ZM7.2002 26.2663C6.93353 26.2663 6.7114 26.1775 6.5338 25.9999C6.35567 25.8223 6.2666 25.6002 6.2666 25.3335V24.2663C6.2666 24.1554 6.289 24.05 6.3338 23.9503C6.37807 23.85 6.44473 23.7444 6.5338 23.6335L21.4338 8.76631L23.7666 11.0999L8.9002 25.9999C8.78927 26.089 8.68367 26.1556 8.5834 26.1999C8.48367 26.2442 8.37807 26.2663 8.2666 26.2663H7.2002ZM22.0338 10.4663L21.4002 9.89991L22.6338 11.1335L22.0338 10.4663Z" fill="white"/>
</g>
</svg>
