<svg width="80" height="80" viewBox="0 0 80 80" fill="none" xmlns="http://www.w3.org/2000/svg">
<rect width="80" height="80" rx="40" fill="#B1FFB9"/>
<path fill-rule="evenodd" clip-rule="evenodd" d="M57.8921 36.9343C59.7836 34.1604 60.8716 30.9111 60.8716 27.4373C60.8716 17.2547 51.5229 9 39.9908 9C28.4586 9 19.11 17.2547 19.11 27.4373C19.11 30.911 20.1979 34.1604 22.0894 36.9342C18.3021 40.6654 16 45.5881 16 50.9838C16 62.6386 26.741 72.0867 39.9907 72.0867C53.2404 72.0867 63.9814 62.6386 63.9814 50.9838C63.9814 45.5881 61.6794 40.6655 57.8921 36.9343Z" fill="#4A75EC"/>
<circle cx="35.5481" cy="29.4365" r="4.44273" fill="white"/>
<circle cx="44.4336" cy="29.4365" r="4.44273" fill="white"/>
<circle cx="37.7693" cy="28.548" r="1.77709" fill="#242424"/>
<circle cx="42.212" cy="28.548" r="1.77709" fill="#242424"/>
</svg>
