<svg width="80" height="80" viewBox="0 0 80 80" fill="none" xmlns="http://www.w3.org/2000/svg">
<rect width="80" height="80" rx="40" fill="#FF8AB4"/>
<path fill-rule="evenodd" clip-rule="evenodd" d="M39.5952 7C34.9979 7 31.2711 10.7268 31.2711 15.3241V19.4076L28.7134 16.8499C25.4627 13.5992 20.1921 13.5992 16.9414 16.8499C13.6906 20.1007 13.6906 25.3713 16.9414 28.622L20.0935 31.7742H15.0192C10.4219 31.7742 6.69507 35.501 6.69507 40.0983C6.69507 44.6956 10.4219 48.4224 15.0192 48.4224H19.2157L16.1486 51.4895C12.8978 54.7403 12.8978 60.0108 16.1486 63.2616C19.3994 66.5124 24.6699 66.5124 27.9207 63.2616L31.2711 59.9112V64.8725C31.2711 69.4698 34.9979 73.1966 39.5952 73.1966C44.1925 73.1966 47.9193 69.4698 47.9193 64.8725V59.6L51.9773 63.658C55.2281 66.9088 60.4987 66.9088 63.7494 63.658C67.0002 60.4072 67.0002 55.1367 63.7494 51.8859L60.2859 48.4224H64.5676C69.1648 48.4224 72.8917 44.6956 72.8917 40.0983C72.8917 35.501 69.1648 31.7742 64.5676 31.7742H59.4081L62.9567 28.2256C66.2075 24.9748 66.2075 19.7043 62.9567 16.4535C59.7059 13.2027 54.4354 13.2027 51.1846 16.4535L47.9193 19.7188V15.3241C47.9193 10.7268 44.1925 7 39.5952 7Z" fill="#AFE4FB"/>
<circle cx="35.5727" cy="33.6563" r="4.44273" fill="white"/>
<circle cx="44.4582" cy="33.6563" r="4.44273" fill="white"/>
<circle cx="37.7942" cy="32.7678" r="1.77709" fill="#242424"/>
<circle cx="42.2369" cy="32.7678" r="1.77709" fill="#242424"/>
</svg>
