<svg width="80" height="80" viewBox="0 0 80 80" fill="none" xmlns="http://www.w3.org/2000/svg">
<rect width="80" height="80" rx="40" fill="#FFF067"/>
<path fill-rule="evenodd" clip-rule="evenodd" d="M21.0918 71.1982C24.7402 71.1982 28.0647 68.1384 30.5673 63.1181C33.0699 68.1384 36.3944 71.1982 40.0428 71.1982C43.6912 71.1982 47.0157 68.1384 49.5183 63.1182C52.0209 68.1384 55.3454 71.1982 58.9938 71.1982C66.7765 71.1982 73.0856 57.2746 73.0856 40.0991C73.0856 22.9235 66.7765 9 58.9938 9C55.3454 9 52.0209 12.0598 49.5183 17.08C47.0157 12.0598 43.6912 9 40.0428 9C36.3944 9 33.0699 12.0598 30.5673 17.08C28.0647 12.0598 24.7402 9 21.0918 9C13.3091 9 7 22.9235 7 40.0991C7 57.2746 13.3091 71.1982 21.0918 71.1982Z" fill="#B4E35A"/>
<circle cx="35.6001" cy="33.435" r="4.44273" fill="white"/>
<circle cx="44.4856" cy="33.435" r="4.44273" fill="white"/>
<circle cx="37.8215" cy="32.5464" r="1.77709" fill="#242424"/>
<circle cx="42.2642" cy="32.5464" r="1.77709" fill="#242424"/>
</svg>
