<svg width="80" height="80" viewBox="0 0 80 80" fill="none" xmlns="http://www.w3.org/2000/svg">
<rect width="80" height="80" rx="40" fill="#EF8CFF"/>
<path fill-rule="evenodd" clip-rule="evenodd" d="M27.6644 11C32.4787 11 36.8432 12.926 40.0295 16.0495C43.2157 12.926 47.5802 11 52.3945 11C62.1503 11 70.0589 18.9086 70.0589 28.6644C70.0589 32.8192 68.6245 36.639 66.2238 39.6556C68.6245 42.6721 70.0589 46.4919 70.0589 50.6468C70.0589 60.4025 62.1503 68.3112 52.3945 68.3112C47.5802 68.3112 43.2157 66.3852 40.0295 63.2617C36.8432 66.3852 32.4787 68.3112 27.6644 68.3112C17.9086 68.3112 10 60.4025 10 50.6468C10 46.4919 11.4344 42.6721 13.8351 39.6556C11.4345 36.639 10 32.8192 10 28.6644C10 18.9086 17.9086 11 27.6644 11Z" fill="#0422B2"/>
<circle cx="35.7678" cy="35.435" r="4.44273" fill="white"/>
<circle cx="44.6532" cy="35.435" r="4.44273" fill="white"/>
<circle cx="37.9891" cy="34.5465" r="1.77709" fill="#242424"/>
<circle cx="42.4319" cy="34.5465" r="1.77709" fill="#242424"/>
</svg>
