<svg width="80" height="80" viewBox="0 0 80 80" fill="none" xmlns="http://www.w3.org/2000/svg">
<rect width="80" height="80" rx="40" fill="#AFC6FF"/>
<g clip-path="url(#clip0_1366_4885)">
<path d="M33.7675 10.4894C35.863 4.04018 44.9869 4.04018 47.0823 10.4894L50.1744 20.0059C51.1116 22.8901 53.7993 24.8428 56.8318 24.8428H66.8381C73.6192 24.8428 76.4386 33.5201 70.9526 37.5059L62.8574 43.3874C60.404 45.17 59.3773 48.3295 60.3145 51.2137L63.4066 60.7302C65.502 67.1794 58.1207 72.5423 52.6347 68.5565L44.5394 62.6749C42.086 60.8924 38.7639 60.8924 36.3104 62.6749L28.2152 68.5565C22.7292 72.5423 15.3478 67.1794 17.4433 60.7302L20.5354 51.2137C21.4725 48.3295 20.4459 45.17 17.9925 43.3874L9.89726 37.5059C4.41126 33.5201 7.23069 24.8428 14.0118 24.8428H24.018C27.0506 24.8428 29.7383 22.8901 30.6754 20.0059L33.7675 10.4894Z" fill="#F2AEB2"/>
<circle cx="36.2043" cy="33.983" r="4.44273" fill="white"/>
<circle cx="45.0897" cy="33.983" r="4.44273" fill="white"/>
<circle cx="38.4257" cy="33.0945" r="1.77709" fill="#242424"/>
<circle cx="42.8684" cy="33.0945" r="1.77709" fill="#242424"/>
</g>
<defs>
<clipPath id="clip0_1366_4885">
<rect width="80" height="80" fill="white"/>
</clipPath>
</defs>
</svg>
