<svg width="80" height="80" viewBox="0 0 80 80" fill="none" xmlns="http://www.w3.org/2000/svg">
<path d="M0 40C0 17.9086 17.9086 0 40 0V0C62.0914 0 80 17.9086 80 40V40C80 62.0914 62.0914 80 40 80V80C17.9086 80 0 62.0914 0 40V40Z" fill="#FFFCB4"/>
<g clip-path="url(#clip0_1366_4877)">
<path d="M28.3911 16.5C33.3948 7.83334 45.904 7.83333 50.9077 16.5L67.0586 44.4741C72.0623 53.1407 65.8077 63.9741 55.8002 63.9741H23.4986C13.4911 63.9741 7.23651 53.1408 12.2402 44.4741L28.3911 16.5Z" fill="#6DA9FF"/>
<circle cx="35.4288" cy="30.7647" r="4.44273" fill="white"/>
<circle cx="44.3143" cy="30.7647" r="4.44273" fill="white"/>
<circle cx="37.6501" cy="29.8762" r="1.77709" fill="#242424"/>
<circle cx="42.0928" cy="29.8762" r="1.77709" fill="#242424"/>
</g>
<defs>
<clipPath id="clip0_1366_4877">
<rect width="80" height="80" fill="white"/>
</clipPath>
</defs>
</svg>
