<svg width="127" height="15" viewBox="0 0 127 15" fill="none" xmlns="http://www.w3.org/2000/svg">
<g clip-path="url(#clip0_669_2951)">
<path d="M13.2953 11.5363C12.6792 12.6707 11.8298 13.5277 10.7544 14.1181C9.67529 14.7048 8.46132 15 7.11247 15C5.76361 15 4.53871 14.7048 3.46327 14.1145C2.38783 13.5242 1.54207 12.66 0.92597 11.5292C0.309872 10.3983 0 9.05405 0 7.50356C0 5.95306 0.309872 4.59104 0.92597 3.46017C1.54207 2.3293 2.38783 1.47226 3.46327 0.885491C4.53506 0.295164 5.75268 0 7.10882 0C8.46497 0 9.67529 0.295164 10.7507 0.881935C11.8298 1.46871 12.6756 2.3293 13.2917 3.45661C13.9078 4.58393 14.2176 5.93172 14.2176 7.5C14.2176 9.06828 13.9078 10.4054 13.2917 11.5363H13.2953ZM4.02104 9.93954C4.30175 10.6117 4.7064 11.1202 5.23136 11.4616C5.75632 11.803 6.38336 11.9772 7.11247 11.9772C7.84158 11.9772 8.47226 11.8065 8.99722 11.4616C9.52582 11.1202 9.92683 10.6117 10.2075 9.93954C10.4882 9.26743 10.6268 8.45306 10.6268 7.5C10.6268 6.54694 10.4882 5.73257 10.2075 5.06045C9.93048 4.38834 9.52582 3.8798 8.99722 3.53485C8.46861 3.1899 7.84158 3.0192 7.11247 3.02632C6.38336 3.0192 5.75632 3.1899 5.23136 3.53485C4.7064 3.8798 4.30539 4.39189 4.02104 5.06045C3.73669 5.73257 3.59816 6.54694 3.59816 7.5C3.59816 8.45306 3.74033 9.26743 4.02104 9.93954Z" fill="white"/>
<path d="M19.54 14.8007H16.0476V3.85123H19.3541V5.84625H19.4781C19.7333 5.18125 20.1598 4.65849 20.7577 4.27797C21.3555 3.89746 22.0664 3.70898 22.8867 3.70898C23.7069 3.70898 24.3485 3.87968 24.9391 4.21752C25.5297 4.55536 25.9817 5.039 26.2989 5.65778C26.6161 6.28011 26.7728 7.00201 26.7728 7.81994V14.7972H23.2986V8.46716C23.2986 7.84839 23.1382 7.3683 22.8137 7.01979C22.4893 6.67484 22.0372 6.49704 21.4612 6.48992C20.8743 6.49704 20.4077 6.6784 20.0614 7.03758C19.7114 7.39675 19.54 7.89462 19.54 8.52406V14.7936V14.8007Z" fill="white"/>
<path d="M38.8687 6.35138H36.8236V11.3727C36.8309 11.7034 36.9147 11.9346 37.0715 12.0697C37.2282 12.2049 37.4652 12.276 37.7751 12.2831L38.0011 12.2938C38.1797 12.2938 38.5188 12.276 39.0145 12.244V14.8436C38.526 14.9182 37.9464 14.9574 37.2793 14.9645C36.0106 14.9574 35.0373 14.6906 34.3592 14.1643C33.6811 13.638 33.3457 12.8343 33.353 11.7603V6.35849H31.8438V3.85849H33.353V1.23047H36.8272V3.85138H38.8724V6.35138H38.8687Z" fill="white"/>
<path d="M44.4429 14.8008H40.9504V0.202637H44.3189V5.84986H44.4429C44.7054 5.17063 45.1246 4.64432 45.7042 4.27092C46.2839 3.89752 46.9875 3.71259 47.8114 3.71259C48.6353 3.71259 49.2842 3.88329 49.8747 4.22113C50.4653 4.55897 50.9174 5.03905 51.2382 5.65783C51.559 6.27661 51.7194 6.99851 51.7194 7.82355V14.8008H48.227V8.47077C48.2342 7.852 48.0738 7.37191 47.753 7.02341C47.4286 6.67845 46.9729 6.50065 46.3896 6.49353C45.8027 6.50065 45.3324 6.68557 44.9788 7.0483C44.6252 7.41103 44.4465 7.90534 44.4465 8.53123V14.8008H44.4429Z" fill="white"/>
<path d="M55.9446 14.321C55.0951 13.8658 54.4426 13.2186 53.9869 12.3758C53.5312 11.5329 53.3052 10.5337 53.3052 9.3779C53.3052 8.22214 53.5312 7.26552 53.9869 6.40848C54.4426 5.55144 55.0879 4.88643 55.9263 4.41702C56.7648 3.9476 57.7345 3.71289 58.8464 3.71289C59.9583 3.71289 60.8478 3.92626 61.6644 4.35656C62.481 4.78686 63.119 5.42342 63.5747 6.26268C64.034 7.10194 64.2601 8.11545 64.2601 9.29611V10.1638H56.7356V10.2243C56.7429 10.9284 56.9507 11.4938 57.3627 11.9135C57.771 12.3331 58.3287 12.5429 59.0323 12.5429C59.5026 12.5429 59.9073 12.4504 60.2499 12.262C60.5926 12.0735 60.8369 11.8174 60.9718 11.4974H64.2163C64.0705 12.2086 63.7715 12.831 63.3122 13.3573C62.8529 13.8836 62.255 14.2926 61.515 14.577C60.7749 14.8615 59.9255 15.0038 58.9667 15.0038C57.8038 15.0038 56.794 14.7762 55.9446 14.3246V14.321ZM61.0119 8.16524C61.0046 7.78117 60.9134 7.43978 60.7312 7.1375C60.5525 6.83522 60.3046 6.59696 59.9875 6.42626C59.6703 6.25556 59.3167 6.17022 58.923 6.17022C58.5292 6.17022 58.161 6.25912 57.8329 6.43337C57.5048 6.60763 57.2424 6.84589 57.0492 7.14817C56.8523 7.45044 56.7466 7.78828 56.732 8.16524H61.0119Z" fill="white"/>
<path d="M69.7576 0.202637H75.9368C77.0304 0.202637 77.96 0.355553 78.722 0.661385C79.4839 0.967217 80.0562 1.39752 80.4427 1.95584C80.8291 2.51416 81.0223 3.16494 81.0223 3.91174C81.0223 4.72611 80.7671 5.4089 80.2567 5.96722C79.7464 6.52554 79.0719 6.88827 78.2298 7.05541V7.19766C78.835 7.22611 79.3964 7.38614 79.9104 7.6813C80.4244 7.97646 80.8327 8.38542 81.139 8.91174C81.4452 9.43806 81.5983 10.0391 81.5983 10.7254C81.5983 11.5113 81.3941 12.2119 80.9895 12.8271C80.5812 13.4423 79.987 13.926 79.2068 14.2745C78.423 14.623 77.4934 14.7972 76.4107 14.7972H69.7539V0.202637H69.7576ZM75.3608 6.23038C75.9732 6.22326 76.4727 6.07035 76.8554 5.77163C77.2382 5.47291 77.4278 5.0675 77.4278 4.55541C77.4278 4.04332 77.2455 3.66636 76.8846 3.37476C76.5237 3.0867 76.0279 2.9409 75.4009 2.9409H73.2719V6.22682H75.3608V6.23038ZM75.5868 12.0163C76.3706 12.0163 76.9575 11.8705 77.3439 11.5789C77.7304 11.2873 77.9236 10.8748 77.9236 10.3449C77.9236 9.76523 77.7194 9.30648 77.3148 8.96864C76.9065 8.6308 76.3524 8.46366 75.6524 8.47077H73.2755V12.0198H75.5904L75.5868 12.0163Z" fill="white"/>
<path d="M85.3532 14.2961C84.5038 13.8267 83.8513 13.1652 83.3956 12.3153C82.9399 11.4654 82.7139 10.4803 82.7139 9.35656C82.7139 8.23281 82.9399 7.24774 83.3956 6.39781C83.8513 5.54788 84.5038 4.88643 85.3532 4.41702C86.2027 3.9476 87.2052 3.71289 88.3572 3.71289C89.5092 3.71289 90.5153 3.9476 91.3648 4.41702C92.2105 4.88643 92.8631 5.54788 93.3188 6.39781C93.7745 7.24774 94.0005 8.23281 94.0005 9.35656C94.0005 10.4803 93.7745 11.4654 93.3188 12.3153C92.8631 13.1652 92.2142 13.8267 91.3648 14.2961C90.519 14.7655 89.5165 15.0002 88.3572 15.0002C87.1979 15.0002 86.2063 14.7655 85.3532 14.2961ZM86.8151 11.5792C87.1797 12.1482 87.701 12.4327 88.3754 12.4398C89.0243 12.4327 89.531 12.1517 89.8956 11.5934C90.2602 11.0351 90.4424 10.2954 90.4424 9.37434C90.4424 8.45329 90.2602 7.66737 89.8992 7.09483C89.5383 6.52228 89.028 6.23423 88.3754 6.22712C87.7083 6.23423 87.187 6.51517 86.8188 7.07349C86.4506 7.63181 86.2646 8.3715 86.2646 9.29255C86.2646 10.2136 86.4469 11.0066 86.8115 11.5756L86.8151 11.5792Z" fill="white"/>
<path d="M96.4576 9.24966C97.2232 8.70912 98.2293 8.39973 99.4761 8.32861C100.081 8.28949 100.84 8.25393 101.751 8.22904L102.163 8.2077V7.31865C102.163 6.9417 102.032 6.65009 101.766 6.44027C101.499 6.23046 101.135 6.12733 100.665 6.12733C100.194 6.12733 99.8079 6.21979 99.5162 6.40827C99.2282 6.59675 99.0459 6.87057 98.9803 7.2333H95.7358C95.7905 6.57541 96.0165 5.97797 96.4138 5.44454C96.8112 4.91111 97.3726 4.48793 98.1017 4.17498C98.8309 3.86204 99.7021 3.70557 100.716 3.70557C101.652 3.70557 102.495 3.84781 103.238 4.12875C103.982 4.40969 104.573 4.82932 105.006 5.38053C105.44 5.93174 105.659 6.58963 105.659 7.35777V14.7973H102.374V13.2646H102.29C101.981 13.83 101.554 14.2568 101.007 14.5484C100.464 14.84 99.8006 14.9893 99.0241 14.9965C98.295 14.9893 97.6497 14.8649 97.0919 14.6231C96.5341 14.3812 96.1003 14.0185 95.7905 13.5349C95.4806 13.0512 95.3238 12.4573 95.3238 11.7497C95.3165 10.6188 95.6957 9.78665 96.4612 9.24611L96.4576 9.24966ZM99.0241 12.4573C99.2902 12.6494 99.6402 12.7454 100.074 12.7454C100.468 12.7454 100.825 12.6672 101.149 12.5071C101.474 12.3471 101.725 12.1302 101.908 11.8528C102.09 11.5754 102.181 11.2589 102.181 10.9104V10.2063C101.893 10.2134 101.525 10.2276 101.087 10.2525C100.646 10.2774 100.3 10.3023 100.056 10.3272C99.6073 10.3734 99.2574 10.5121 99.0058 10.7397C98.7543 10.9673 98.6303 11.266 98.6303 11.6359C98.6303 12.0057 98.7616 12.2653 99.0277 12.4573H99.0241Z" fill="white"/>
<path d="M107.828 3.8513H111.218V5.82854H111.321C111.521 5.12797 111.853 4.60165 112.319 4.24248C112.786 3.8833 113.333 3.69838 113.967 3.69482C114.292 3.70905 114.62 3.74817 114.959 3.81573V6.77804C114.795 6.73181 114.576 6.69269 114.303 6.66068C114.029 6.63224 113.781 6.61445 113.552 6.61445C113.125 6.61445 112.739 6.70691 112.4 6.89184C112.057 7.07676 111.794 7.33636 111.605 7.66709C111.415 8.00137 111.321 8.38188 111.321 8.81218V14.8008H107.828V3.8513Z" fill="white"/>
<path d="M117.988 14.3136C117.307 13.8833 116.767 13.2467 116.37 12.3968C115.972 11.5504 115.775 10.5298 115.775 9.33137C115.775 8.13294 115.98 7.06608 116.384 6.21971C116.789 5.37689 117.332 4.74744 118.01 4.33137C118.688 3.9153 119.439 3.70548 120.259 3.70548C121.08 3.70548 121.761 3.89752 122.286 4.28514C122.811 4.67276 123.198 5.14929 123.442 5.72184H123.526V0.202637H127V14.8008H123.548V13.0262H123.446C123.19 13.5846 122.8 14.0469 122.272 14.4132C121.743 14.7795 121.08 14.9608 120.281 14.9608C119.436 14.9608 118.67 14.7474 117.988 14.3171V14.3136ZM119.906 11.49C120.274 12.027 120.792 12.2972 121.462 12.2972C122.133 12.2972 122.651 12.0341 123.026 11.5042C123.402 10.9779 123.588 10.2595 123.588 9.35271C123.588 8.44588 123.402 7.69552 123.03 7.16565C122.658 6.63578 122.133 6.36907 121.459 6.36907C120.784 6.36907 120.263 6.63222 119.899 7.1621C119.534 7.68841 119.352 8.40676 119.352 9.31359C119.352 10.2204 119.534 10.953 119.906 11.49Z" fill="white"/>
</g>
<defs>
<clipPath id="clip0_669_2951">
<rect width="127" height="15" fill="white"/>
</clipPath>
</defs>
</svg>
